<?xml version="1.0" standalone="no"?>
<!DOCTYPE svg PUBLIC "-//W3C//DTD SVG 20010904//EN"
 "http://www.w3.org/TR/2001/REC-SVG-20010904/DTD/svg10.dtd">
<svg version="1.0" xmlns="http://www.w3.org/2000/svg"
 width="256.000000pt" height="256.000000pt" viewBox="0 0 256.000000 256.000000"
 preserveAspectRatio="xMidYMid meet">

<g transform="translate(0.000000,256.000000) scale(0.100000,-0.100000)"
fill="#FFFFFF" stroke="none">
<path d="M903 2553 c-34 -13 -9 -52 119 -180 l133 -133 -61 0 c-47 0 -69 -5
-95 -23 -43 -29 -79 -82 -79 -118 l0 -29 -283 0 c-224 0 -294 -3 -334 -15 -68
-20 -143 -88 -174 -157 l-24 -53 0 -665 c0 -751 -3 -719 79 -808 57 -62 106
-84 198 -90 l76 -4 4 -115 c3 -112 4 -115 31 -139 23 -20 39 -24 92 -24 92 0
109 18 135 140 11 52 22 105 25 118 5 21 9 22 118 22 116 0 137 6 137 42 0 34
-32 38 -350 38 -238 0 -318 3 -343 13 -44 19 -103 87 -116 134 -7 25 -11 255
-11 669 0 696 -1 686 62 751 65 67 14 64 1055 61 l941 -3 44 -30 c23 -17 54
-51 68 -75 l25 -45 3 -630 c2 -430 0 -646 -8 -681 -13 -60 -56 -117 -111 -144
-37 -19 -61 -20 -587 -20 -509 0 -551 -1 -570 -18 -16 -13 -18 -22 -12 -39 l9
-23 355 0 356 0 5 -22 c3 -13 14 -66 25 -118 26 -122 43 -140 135 -140 53 0
69 4 92 24 27 24 28 27 31 139 l4 115 76 4 c92 6 141 28 198 90 82 89 79 57
79 808 l0 665 -24 53 c-31 69 -106 137 -174 157 -40 12 -110 15 -334 15 l-283
0 0 29 c0 36 -36 89 -79 118 -26 18 -48 23 -95 23 l-61 0 133 133 c135 136
155 168 111 182 -18 6 -48 -19 -183 -154 -122 -122 -167 -161 -186 -161 -19 0
-64 39 -185 160 -88 88 -164 160 -170 159 -5 0 -16 -3 -22 -6z m606 -394 c29
-10 61 -52 61 -79 0 -7 -94 -10 -290 -10 -310 0 -304 -1 -276 49 26 46 47 50
267 51 126 0 218 -4 238 -11z m-839 -1888 c0 -6 -7 -40 -15 -78 -9 -37 -18
-78 -20 -90 -5 -20 -12 -23 -50 -23 l-45 0 0 100 0 100 65 0 c36 0 65 -4 65
-9z m1350 -91 l0 -100 -45 0 c-38 0 -45 3 -50 23 -2 12 -11 53 -20 90 -8 38
-15 72 -15 78 0 5 29 9 65 9 l65 0 0 -100z"/>
<path d="M349 1889 c-20 -12 -46 -39 -58 -60 -20 -35 -21 -50 -19 -220 3 -160
5 -183 21 -193 12 -8 22 -8 35 0 15 10 18 34 22 193 5 177 6 183 29 202 22 18
48 19 661 19 630 0 638 0 664 -21 l26 -20 0 -613 0 -613 -23 -21 -23 -22 -641
0 c-616 0 -642 1 -664 19 l-24 19 -5 378 c-5 345 -6 378 -22 388 -13 8 -23 8
-35 0 -17 -10 -18 -42 -21 -388 -3 -422 -2 -425 67 -472 l36 -24 666 0 666 0
34 23 c19 12 44 42 57 67 l22 44 0 601 c0 563 -2 602 -19 641 -10 23 -34 52
-52 65 l-34 24 -665 2 c-662 3 -665 3 -701 -18z"/>
<path d="M2035 1898 c-68 -24 -115 -91 -115 -163 0 -50 10 -77 44 -113 79 -88
228 -65 277 41 23 53 24 91 0 142 -22 49 -48 73 -98 91 -45 16 -67 16 -108 2z
m27 -185 c16 -19 46 -16 58 6 5 11 10 39 10 63 l1 43 24 -28 c27 -30 31 -60
15 -102 -12 -31 -69 -58 -105 -49 -61 15 -86 105 -42 152 l22 24 3 -48 c2 -27
8 -54 14 -61z"/>
<path d="M503 1735 c-18 -7 -42 -29 -53 -47 -20 -32 -20 -46 -18 -525 l3 -493
33 -32 32 -33 530 -3 c462 -2 534 -1 560 13 61 31 60 26 60 559 0 345 -3 492
-12 510 -6 14 -23 34 -37 43 -24 17 -68 18 -546 20 -431 2 -525 0 -552 -12z
m687 -213 c0 -102 4 -152 12 -160 17 -17 55 -15 62 4 3 9 6 81 6 160 l0 144
131 0 c72 0 139 -5 150 -10 18 -10 19 -26 19 -483 0 -355 -3 -476 -12 -485 -8
-8 -56 -12 -150 -12 l-138 0 0 278 c0 280 -3 302 -36 302 -7 0 -20 -7 -28 -16
-14 -13 -16 -54 -16 -290 l0 -274 -150 0 -150 0 0 495 0 495 150 0 150 0 0
-148z m-380 -352 l0 -490 -134 0 c-109 0 -138 3 -150 16 -14 14 -16 70 -16
474 0 252 3 465 6 474 5 14 28 16 150 16 l144 0 0 -490z"/>
<path d="M2009 1477 c-149 -79 -102 -301 66 -315 161 -13 246 180 129 290 -57
53 -125 62 -195 25z m138 -82 l28 -24 -43 -1 c-52 0 -82 -14 -82 -38 0 -30 22
-42 74 -42 l49 0 -23 -25 c-17 -18 -34 -25 -62 -25 -54 0 -88 35 -88 90 0 80
86 119 147 65z"/>
<path d="M1932 908 c-6 -6 -12 -20 -12 -29 0 -35 23 -40 175 -37 128 3 149 5
159 21 8 12 8 22 0 35 -10 15 -31 17 -160 20 -108 2 -153 -1 -162 -10z"/>
<path d="M1930 756 c-6 -8 -10 -25 -8 -38 3 -23 5 -23 157 -26 154 -3 181 2
181 34 0 7 -7 20 -16 28 -22 22 -295 24 -314 2z"/>
<path d="M1938 610 c-24 -15 -23 -57 1 -70 11 -5 80 -10 155 -10 109 0 138 3
150 16 18 18 20 32 6 54 -7 12 -38 16 -152 18 -88 1 -150 -2 -160 -8z"/>
</g>
</svg>
